# Blender v2.79 (sub 0) OBJ File: ''
# www.blender.org
mtllib hole_2.mtl
o hole_2_Cylinder.003
v 0.000000 0.000000 -1.000000
v 0.000000 1.548978 -1.000000
v 0.195090 0.000000 -0.980785
v 0.195090 1.548978 -0.980785
v 0.382683 0.000000 -0.923880
v 0.382683 1.548978 -0.923880
v 0.555570 0.000000 -0.831470
v 0.555570 1.548978 -0.831470
v 0.707107 0.000000 -0.707107
v 0.707107 1.548978 -0.707107
v 0.831470 0.000000 -0.555570
v 0.831470 1.548978 -0.555570
v 0.923880 0.000000 -0.382683
v 0.923880 1.548978 -0.382683
v 0.980785 0.000000 -0.195090
v 0.980785 1.548978 -0.195090
v 1.000000 0.000000 -0.000000
v 1.000000 1.548978 -0.000000
v 0.980785 0.000000 0.195090
v 0.980785 1.548978 0.195090
v 0.923880 0.000000 0.382683
v 0.923880 1.548978 0.382683
v 0.831470 0.000000 0.555570
v 0.831470 1.548978 0.555570
v 0.707107 0.000000 0.707107
v 0.707107 1.548978 0.707107
v 0.555570 0.000000 0.831470
v 0.555570 1.548978 0.831470
v 0.382683 0.000000 0.923880
v 0.382683 1.548978 0.923880
v 0.195090 0.000000 0.980785
v 0.195090 1.548978 0.980785
v -0.000000 0.000000 1.000000
v -0.000000 1.548978 1.000000
v -0.195091 0.000000 0.980785
v -0.195091 1.548978 0.980785
v -0.382684 0.000000 0.923879
v -0.382684 1.548978 0.923879
v -0.555571 0.000000 0.831469
v -0.555571 1.548978 0.831469
v -0.707107 0.000000 0.707106
v -0.707107 1.548978 0.707106
v -0.831470 0.000000 0.555570
v -0.831470 1.548978 0.555570
v -0.923880 0.000000 0.382683
v -0.923880 1.548978 0.382683
v -0.980785 0.000000 0.195089
v -0.980785 1.548978 0.195089
v -1.000000 0.000000 -0.000001
v -1.000000 1.548978 -0.000001
v -0.980785 0.000000 -0.195091
v -0.980785 1.548978 -0.195091
v -0.923879 0.000000 -0.382684
v -0.923879 1.548978 -0.382684
v -0.831469 0.000000 -0.555571
v -0.831469 1.548978 -0.555571
v -0.707106 0.000000 -0.707108
v -0.707106 1.548978 -0.707108
v -0.555569 0.000000 -0.831470
v -0.555569 1.548978 -0.831470
v -0.382682 0.000000 -0.923880
v -0.382682 1.548978 -0.923880
v -0.195089 0.000000 -0.980786
v -0.195089 1.548978 -0.980786
v 0.225929 1.548978 -1.135819
v -0.000000 1.548978 -1.158071
v 0.443175 1.548978 -1.069918
v 0.643390 1.548978 -0.962901
v 0.818880 1.548978 -0.818880
v 0.962901 1.548978 -0.643390
v 1.069918 1.548978 -0.443175
v 1.135819 1.548978 -0.225929
v 1.158071 1.548978 -0.000000
v 1.135819 1.548978 0.225928
v 1.069919 1.548978 0.443175
v 0.962901 1.548978 0.643390
v 0.818880 1.548978 0.818880
v 0.643390 1.548978 0.962901
v 0.443175 1.548978 1.069919
v 0.225928 1.548978 1.135820
v -0.000000 1.548978 1.158071
v -0.225929 1.548978 1.135819
v -0.443175 1.548978 1.069918
v -0.643391 1.548978 0.962901
v -0.818881 1.548978 0.818880
v -0.962902 1.548978 0.643389
v -1.069919 1.548978 0.443174
v -1.135820 1.548978 0.225928
v -1.158071 1.548978 -0.000001
v -1.135819 1.548978 -0.225930
v -1.069918 1.548978 -0.443176
v -0.962900 1.548978 -0.643391
v -0.818879 1.548978 -0.818881
v -0.643389 1.548978 -0.962902
v -0.443173 1.548978 -1.069919
v -0.225927 1.548978 -1.135820
v 0.225929 2.512313 -1.135819
v -0.000000 2.512313 -1.158071
v 0.443175 2.512313 -1.069918
v 0.643390 2.512313 -0.962901
v 0.818880 2.512313 -0.818880
v 0.962901 2.512313 -0.643390
v 1.069918 2.512313 -0.443175
v 1.135819 2.512313 -0.225929
v 1.158071 2.512313 -0.000000
v 1.135819 2.512313 0.225928
v 1.069919 2.512313 0.443175
v 0.962901 2.512313 0.643390
v 0.818880 2.512313 0.818880
v 0.643390 2.512313 0.962901
v 0.443175 2.512313 1.069919
v 0.225928 2.512313 1.135820
v -0.000000 2.512313 1.158071
v -0.225929 2.512313 1.135819
v -0.443175 2.512313 1.069918
v -0.643391 2.512313 0.962901
v -0.818881 2.512313 0.818880
v -0.962902 2.512313 0.643389
v -1.069919 2.512313 0.443174
v -1.135820 2.512313 0.225928
v -1.158071 2.512313 -0.000001
v -1.135819 2.512313 -0.225930
v -1.069918 2.512313 -0.443176
v -0.962900 2.512313 -0.643391
v -0.818879 2.512313 -0.818881
v -0.643389 2.512313 -0.962902
v -0.443173 2.512313 -1.069919
v -0.225927 2.512313 -1.135820
v 0.167209 2.512313 -0.840616
v 0.000000 2.512313 -0.857085
v 0.327992 2.512313 -0.791843
v 0.476171 2.512313 -0.712640
v 0.606050 2.512313 -0.606050
v 0.712640 2.512313 -0.476171
v 0.791843 2.512313 -0.327992
v 0.840616 2.512313 -0.167209
v 0.857085 2.512313 -0.000000
v 0.840616 2.512313 0.167209
v 0.791843 2.512313 0.327992
v 0.712640 2.512313 0.476171
v 0.606050 2.512313 0.606050
v 0.476171 2.512313 0.712640
v 0.327992 2.512313 0.791843
v 0.167209 2.512313 0.840616
v -0.000000 2.512313 0.857084
v -0.167209 2.512313 0.840616
v -0.327992 2.512313 0.791843
v -0.476171 2.512313 0.712639
v -0.606051 2.512313 0.606050
v -0.712640 2.512313 0.476170
v -0.791843 2.512313 0.327991
v -0.840616 2.512313 0.167208
v -0.857085 2.512313 -0.000001
v -0.840616 2.512313 -0.167210
v -0.791842 2.512313 -0.327993
v -0.712639 2.512313 -0.476172
v -0.606050 2.512313 -0.606051
v -0.476170 2.512313 -0.712640
v -0.327991 2.512313 -0.791843
v -0.167208 2.512313 -0.840616
v 0.167209 0.142773 -0.840616
v 0.000000 0.142773 -0.857085
v 0.327992 0.142773 -0.791843
v 0.476171 0.142773 -0.712640
v 0.606050 0.142773 -0.606050
v 0.712640 0.142773 -0.476171
v 0.791843 0.142773 -0.327992
v 0.840616 0.142773 -0.167209
v 0.857085 0.142773 -0.000000
v 0.840616 0.142773 0.167209
v 0.791843 0.142773 0.327992
v 0.712640 0.142773 0.476171
v 0.606050 0.142773 0.606050
v 0.476171 0.142773 0.712640
v 0.327992 0.142773 0.791843
v 0.167209 0.142773 0.840616
v -0.000000 0.142773 0.857084
v -0.167209 0.142773 0.840616
v -0.327992 0.142773 0.791843
v -0.476171 0.142773 0.712639
v -0.606051 0.142773 0.606050
v -0.712640 0.142773 0.476170
v -0.791843 0.142773 0.327991
v -0.840616 0.142773 0.167208
v -0.857084 0.142773 -0.000001
v -0.840616 0.142773 -0.167210
v -0.791842 0.142773 -0.327993
v -0.712639 0.142773 -0.476172
v -0.606049 0.142773 -0.606051
v -0.476170 0.142773 -0.712640
v -0.327991 0.142773 -0.791843
v -0.167207 0.142773 -0.840616
vn 0.0980 0.0000 -0.9952
vn 0.2903 0.0000 -0.9569
vn 0.4714 0.0000 -0.8819
vn 0.6344 0.0000 -0.7730
vn 0.7730 0.0000 -0.6344
vn 0.8819 0.0000 -0.4714
vn 0.9569 0.0000 -0.2903
vn 0.9952 0.0000 -0.0980
vn 0.9952 0.0000 0.0980
vn 0.9569 0.0000 0.2903
vn 0.8819 0.0000 0.4714
vn 0.7730 0.0000 0.6344
vn 0.6344 0.0000 0.7730
vn 0.4714 0.0000 0.8819
vn 0.2903 0.0000 0.9569
vn 0.0980 0.0000 0.9952
vn -0.0980 0.0000 0.9952
vn -0.2903 0.0000 0.9569
vn -0.4714 0.0000 0.8819
vn -0.6344 0.0000 0.7730
vn -0.7730 0.0000 0.6344
vn -0.8819 0.0000 0.4714
vn -0.9569 0.0000 0.2903
vn -0.9952 0.0000 0.0980
vn -0.9952 0.0000 -0.0980
vn -0.9569 0.0000 -0.2903
vn -0.8819 0.0000 -0.4714
vn -0.7730 0.0000 -0.6344
vn -0.6344 0.0000 -0.7730
vn -0.4714 0.0000 -0.8819
vn 0.0000 -1.0000 0.0000
vn -0.2903 0.0000 -0.9569
vn -0.0980 0.0000 -0.9952
vn 0.0000 1.0000 -0.0000
g hole_2_Cylinder.003_hole_green
usemtl hole_green
s off
f 1//1 2//1 4//1 3//1
f 3//2 4//2 6//2 5//2
f 5//3 6//3 8//3 7//3
f 7//4 8//4 10//4 9//4
f 9//5 10//5 12//5 11//5
f 11//6 12//6 14//6 13//6
f 13//7 14//7 16//7 15//7
f 15//8 16//8 18//8 17//8
f 17//9 18//9 20//9 19//9
f 19//10 20//10 22//10 21//10
f 21//11 22//11 24//11 23//11
f 23//12 24//12 26//12 25//12
f 25//13 26//13 28//13 27//13
f 27//14 28//14 30//14 29//14
f 29//15 30//15 32//15 31//15
f 31//16 32//16 34//16 33//16
f 33//17 34//17 36//17 35//17
f 35//18 36//18 38//18 37//18
f 37//19 38//19 40//19 39//19
f 39//20 40//20 42//20 41//20
f 41//21 42//21 44//21 43//21
f 43//22 44//22 46//22 45//22
f 45//23 46//23 48//23 47//23
f 47//24 48//24 50//24 49//24
f 49//25 50//25 52//25 51//25
f 51//26 52//26 54//26 53//26
f 53//27 54//27 56//27 55//27
f 55//28 56//28 58//28 57//28
f 57//29 58//29 60//29 59//29
f 59//30 60//30 62//30 61//30
f 48//31 46//31 87//31 88//31
f 61//32 62//32 64//32 63//32
f 63//33 64//33 2//33 1//33
f 1//31 3//31 5//31 7//31 9//31 11//31 13//31 15//31 17//31 19//31 21//31 23//31 25//31 27//31 29//31 31//31 33//31 35//31 37//31 39//31 41//31 43//31 45//31 47//31 49//31 51//31 53//31 55//31 57//31 59//31 61//31 63//31
f 92//27 91//27 123//27 124//27
f 4//31 2//31 66//31 65//31
f 2//31 64//31 96//31 66//31
f 22//31 20//31 74//31 75//31
f 40//31 38//31 83//31 84//31
f 58//31 56//31 92//31 93//31
f 14//31 12//31 70//31 71//31
f 32//31 30//31 79//31 80//31
f 50//31 48//31 88//31 89//31
f 6//31 4//31 65//31 67//31
f 24//31 22//31 75//31 76//31
f 42//31 40//31 84//31 85//31
f 60//31 58//31 93//31 94//31
f 16//31 14//31 71//31 72//31
f 34//31 32//31 80//31 81//31
f 52//31 50//31 89//31 90//31
f 8//31 6//31 67//31 68//31
f 26//31 24//31 76//31 77//31
f 44//31 42//31 85//31 86//31
f 62//31 60//31 94//31 95//31
f 18//31 16//31 72//31 73//31
f 36//31 34//31 81//31 82//31
f 54//31 52//31 90//31 91//31
f 10//31 8//31 68//31 69//31
f 28//31 26//31 77//31 78//31
f 46//31 44//31 86//31 87//31
f 64//31 62//31 95//31 96//31
f 20//31 18//31 73//31 74//31
f 38//31 36//31 82//31 83//31
f 56//31 54//31 91//31 92//31
f 12//31 10//31 69//31 70//31
f 30//31 28//31 78//31 79//31
f 100//34 99//34 131//34 132//34
f 79//14 78//14 110//14 111//14
f 65//1 66//1 98//1 97//1
f 93//28 92//28 124//28 125//28
f 80//15 79//15 111//15 112//15
f 67//2 65//2 97//2 99//2
f 94//29 93//29 125//29 126//29
f 81//16 80//16 112//16 113//16
f 68//3 67//3 99//3 100//3
f 95//30 94//30 126//30 127//30
f 82//17 81//17 113//17 114//17
f 69//4 68//4 100//4 101//4
f 96//32 95//32 127//32 128//32
f 83//18 82//18 114//18 115//18
f 70//5 69//5 101//5 102//5
f 66//33 96//33 128//33 98//33
f 84//19 83//19 115//19 116//19
f 71//6 70//6 102//6 103//6
f 85//20 84//20 116//20 117//20
f 72//7 71//7 103//7 104//7
f 86//21 85//21 117//21 118//21
f 73//8 72//8 104//8 105//8
f 87//22 86//22 118//22 119//22
f 74//9 73//9 105//9 106//9
f 88//23 87//23 119//23 120//23
f 75//10 74//10 106//10 107//10
f 89//24 88//24 120//24 121//24
f 76//11 75//11 107//11 108//11
f 90//25 89//25 121//25 122//25
f 77//12 76//12 108//12 109//12
f 91//26 90//26 122//26 123//26
f 78//13 77//13 109//13 110//13
f 135//22 134//22 166//22 167//22
f 127//34 126//34 158//34 159//34
f 114//34 113//34 145//34 146//34
f 101//34 100//34 132//34 133//34
f 128//34 127//34 159//34 160//34
f 115//34 114//34 146//34 147//34
f 102//34 101//34 133//34 134//34
f 98//34 128//34 160//34 130//34
f 116//34 115//34 147//34 148//34
f 103//34 102//34 134//34 135//34
f 117//34 116//34 148//34 149//34
f 104//34 103//34 135//34 136//34
f 118//34 117//34 149//34 150//34
f 105//34 104//34 136//34 137//34
f 119//34 118//34 150//34 151//34
f 106//34 105//34 137//34 138//34
f 120//34 119//34 151//34 152//34
f 107//34 106//34 138//34 139//34
f 121//34 120//34 152//34 153//34
f 108//34 107//34 139//34 140//34
f 122//34 121//34 153//34 154//34
f 109//34 108//34 140//34 141//34
f 123//34 122//34 154//34 155//34
f 110//34 109//34 141//34 142//34
f 124//34 123//34 155//34 156//34
f 111//34 110//34 142//34 143//34
f 97//34 98//34 130//34 129//34
f 125//34 124//34 156//34 157//34
f 112//34 111//34 143//34 144//34
f 99//34 97//34 129//34 131//34
f 126//34 125//34 157//34 158//34
f 113//34 112//34 144//34 145//34
f 149//4 148//4 180//4 181//4
f 136//23 135//23 167//23 168//23
f 150//5 149//5 181//5 182//5
f 137//24 136//24 168//24 169//24
f 151//6 150//6 182//6 183//6
f 138//25 137//25 169//25 170//25
f 152//7 151//7 183//7 184//7
f 139//26 138//26 170//26 171//26
f 153//8 152//8 184//8 185//8
f 140//27 139//27 171//27 172//27
f 154//9 153//9 185//9 186//9
f 141//28 140//28 172//28 173//28
f 155//10 154//10 186//10 187//10
f 142//29 141//29 173//29 174//29
f 156//11 155//11 187//11 188//11
f 143//30 142//30 174//30 175//30
f 129//17 130//17 162//17 161//17
f 157//12 156//12 188//12 189//12
f 144//32 143//32 175//32 176//32
f 131//18 129//18 161//18 163//18
f 158//13 157//13 189//13 190//13
f 145//33 144//33 176//33 177//33
f 132//19 131//19 163//19 164//19
f 159//14 158//14 190//14 191//14
f 146//1 145//1 177//1 178//1
f 133//20 132//20 164//20 165//20
f 160//15 159//15 191//15 192//15
f 147//2 146//2 178//2 179//2
f 134//21 133//21 165//21 166//21
f 130//16 160//16 192//16 162//16
f 148//3 147//3 179//3 180//3
g hole_2_Cylinder.003_holeIn
usemtl holeIn
f 161//34 162//34 192//34 191//34 190//34 189//34 188//34 187//34 186//34 185//34 184//34 183//34 182//34 181//34 180//34 179//34 178//34 177//34 176//34 175//34 174//34 173//34 172//34 171//34 170//34 169//34 168//34 167//34 166//34 165//34 164//34 163//34
