# Blender v2.79 (sub 0) OBJ File: ''
# www.blender.org
mtllib hole_1.mtl
o hole_1_Cylinder
v 0.000000 0.000000 -1.000000
v 0.000000 0.207199 -1.000000
v 0.195090 0.000000 -0.980785
v 0.195090 0.207199 -0.980785
v 0.382683 0.000000 -0.923880
v 0.382683 0.207199 -0.923880
v 0.555570 0.000000 -0.831470
v 0.555570 0.207199 -0.831470
v 0.707107 0.000000 -0.707107
v 0.707107 0.207199 -0.707107
v 0.831470 0.000000 -0.555570
v 0.831470 0.207199 -0.555570
v 0.923880 0.000000 -0.382683
v 0.923880 0.207199 -0.382683
v 0.980785 0.000000 -0.195090
v 0.980785 0.207199 -0.195090
v 1.000000 0.000000 -0.000000
v 1.000000 0.207199 -0.000000
v 0.980785 0.000000 0.195090
v 0.980785 0.207199 0.195090
v 0.923880 0.000000 0.382683
v 0.923880 0.207199 0.382683
v 0.831470 0.000000 0.555570
v 0.831470 0.207199 0.555570
v 0.707107 0.000000 0.707107
v 0.707107 0.207199 0.707107
v 0.555570 0.000000 0.831470
v 0.555570 0.207199 0.831470
v 0.382683 0.000000 0.923880
v 0.382683 0.207199 0.923880
v 0.195090 0.000000 0.980785
v 0.195090 0.207199 0.980785
v -0.000000 0.000000 1.000000
v -0.000000 0.207199 1.000000
v -0.195091 0.000000 0.980785
v -0.195091 0.207199 0.980785
v -0.382684 0.000000 0.923879
v -0.382684 0.207199 0.923879
v -0.555571 0.000000 0.831469
v -0.555571 0.207199 0.831469
v -0.707107 0.000000 0.707106
v -0.707107 0.207199 0.707106
v -0.831470 0.000000 0.555570
v -0.831470 0.207199 0.555570
v -0.923880 0.000000 0.382683
v -0.923880 0.207199 0.382683
v -0.980785 0.000000 0.195089
v -0.980785 0.207199 0.195089
v -1.000000 0.000000 -0.000001
v -1.000000 0.207199 -0.000001
v -0.980785 0.000000 -0.195091
v -0.980785 0.207199 -0.195091
v -0.923879 0.000000 -0.382684
v -0.923879 0.207199 -0.382684
v -0.831469 0.000000 -0.555571
v -0.831469 0.207199 -0.555571
v -0.707106 0.000000 -0.707108
v -0.707106 0.207199 -0.707108
v -0.555569 0.000000 -0.831470
v -0.555569 0.207199 -0.831470
v -0.382682 0.000000 -0.923880
v -0.382682 0.207199 -0.923880
v -0.195089 0.000000 -0.980786
v -0.195089 0.207199 -0.980786
v 0.153128 0.207199 -0.769824
v 0.000000 0.207199 -0.784906
v 0.300371 0.207199 -0.725159
v 0.436070 0.207199 -0.652625
v 0.555012 0.207199 -0.555012
v 0.652626 0.207199 -0.436070
v 0.725159 0.207199 -0.300371
v 0.769824 0.207199 -0.153128
v 0.784906 0.207199 -0.000000
v 0.769824 0.207199 0.153127
v 0.725159 0.207199 0.300370
v 0.652626 0.207199 0.436070
v 0.555012 0.207199 0.555012
v 0.436070 0.207199 0.652625
v 0.300370 0.207199 0.725159
v 0.153127 0.207199 0.769824
v -0.000000 0.207199 0.784906
v -0.153128 0.207199 0.769824
v -0.300371 0.207199 0.725158
v -0.436071 0.207199 0.652625
v -0.555013 0.207199 0.555012
v -0.652626 0.207199 0.436070
v -0.725159 0.207199 0.300370
v -0.769824 0.207199 0.153127
v -0.784906 0.207199 -0.000001
v -0.769824 0.207199 -0.153128
v -0.725158 0.207199 -0.300371
v -0.652625 0.207199 -0.436071
v -0.555012 0.207199 -0.555013
v -0.436069 0.207199 -0.652626
v -0.300369 0.207199 -0.725159
v -0.153126 0.207199 -0.769824
v 0.153128 0.012005 -0.769824
v 0.000000 0.012005 -0.784906
v 0.300371 0.012005 -0.725159
v 0.436070 0.012005 -0.652625
v 0.555012 0.012005 -0.555012
v 0.652626 0.012005 -0.436070
v 0.725159 0.012005 -0.300371
v 0.769824 0.012005 -0.153128
v 0.784906 0.012005 -0.000000
v 0.769824 0.012005 0.153127
v 0.725159 0.012005 0.300370
v 0.652626 0.012005 0.436070
v 0.555012 0.012005 0.555012
v 0.436070 0.012005 0.652625
v 0.300370 0.012005 0.725159
v 0.153127 0.012005 0.769824
v -0.000000 0.012005 0.784906
v -0.153128 0.012005 0.769824
v -0.300371 0.012005 0.725158
v -0.436071 0.012005 0.652625
v -0.555013 0.012005 0.555012
v -0.652626 0.012005 0.436070
v -0.725159 0.012005 0.300370
v -0.769824 0.012005 0.153127
v -0.784906 0.012005 -0.000001
v -0.769824 0.012005 -0.153128
v -0.725158 0.012005 -0.300371
v -0.652625 0.012005 -0.436071
v -0.555012 0.012005 -0.555013
v -0.436069 0.012005 -0.652626
v -0.300369 0.012005 -0.725159
v -0.153126 0.012005 -0.769824
vn 0.0980 0.0000 -0.9952
vn 0.2903 0.0000 -0.9569
vn 0.4714 0.0000 -0.8819
vn 0.6344 0.0000 -0.7730
vn 0.7730 0.0000 -0.6344
vn 0.8819 0.0000 -0.4714
vn 0.9569 0.0000 -0.2903
vn 0.9952 0.0000 -0.0980
vn 0.9952 0.0000 0.0980
vn 0.9569 0.0000 0.2903
vn 0.8819 0.0000 0.4714
vn 0.7730 0.0000 0.6344
vn 0.6344 0.0000 0.7730
vn 0.4714 0.0000 0.8819
vn 0.2903 0.0000 0.9569
vn 0.0980 0.0000 0.9952
vn -0.0980 0.0000 0.9952
vn -0.2903 0.0000 0.9569
vn -0.4714 0.0000 0.8819
vn -0.6344 0.0000 0.7730
vn -0.7730 0.0000 0.6344
vn -0.8819 0.0000 0.4714
vn -0.9569 0.0000 0.2903
vn -0.9952 0.0000 0.0980
vn -0.9952 0.0000 -0.0980
vn -0.9569 0.0000 -0.2903
vn -0.8819 0.0000 -0.4714
vn -0.7730 0.0000 -0.6344
vn -0.6344 0.0000 -0.7730
vn -0.4714 0.0000 -0.8819
vn 0.0000 1.0000 0.0000
vn -0.2903 0.0000 -0.9569
vn -0.0980 0.0000 -0.9952
vn 0.0000 -1.0000 0.0000
g hole_1_Cylinder_hole_green
usemtl hole_green
s off
f 1//1 2//1 4//1 3//1
f 3//2 4//2 6//2 5//2
f 5//3 6//3 8//3 7//3
f 7//4 8//4 10//4 9//4
f 9//5 10//5 12//5 11//5
f 11//6 12//6 14//6 13//6
f 13//7 14//7 16//7 15//7
f 15//8 16//8 18//8 17//8
f 17//9 18//9 20//9 19//9
f 19//10 20//10 22//10 21//10
f 21//11 22//11 24//11 23//11
f 23//12 24//12 26//12 25//12
f 25//13 26//13 28//13 27//13
f 27//14 28//14 30//14 29//14
f 29//15 30//15 32//15 31//15
f 31//16 32//16 34//16 33//16
f 33//17 34//17 36//17 35//17
f 35//18 36//18 38//18 37//18
f 37//19 38//19 40//19 39//19
f 39//20 40//20 42//20 41//20
f 41//21 42//21 44//21 43//21
f 43//22 44//22 46//22 45//22
f 45//23 46//23 48//23 47//23
f 47//24 48//24 50//24 49//24
f 49//25 50//25 52//25 51//25
f 51//26 52//26 54//26 53//26
f 53//27 54//27 56//27 55//27
f 55//28 56//28 58//28 57//28
f 57//29 58//29 60//29 59//29
f 59//30 60//30 62//30 61//30
f 22//31 20//31 74//31 75//31
f 61//32 62//32 64//32 63//32
f 63//33 64//33 2//33 1//33
f 1//34 3//34 5//34 7//34 9//34 11//34 13//34 15//34 17//34 19//34 21//34 23//34 25//34 27//34 29//34 31//34 33//34 35//34 37//34 39//34 41//34 43//34 45//34 47//34 49//34 51//34 53//34 55//34 57//34 59//34 61//34 63//34
f 79//30 78//30 110//30 111//30
f 40//31 38//31 83//31 84//31
f 58//31 56//31 92//31 93//31
f 14//31 12//31 70//31 71//31
f 32//31 30//31 79//31 80//31
f 50//31 48//31 88//31 89//31
f 6//31 4//31 65//31 67//31
f 24//31 22//31 75//31 76//31
f 42//31 40//31 84//31 85//31
f 60//31 58//31 93//31 94//31
f 16//31 14//31 71//31 72//31
f 34//31 32//31 80//31 81//31
f 52//31 50//31 89//31 90//31
f 8//31 6//31 67//31 68//31
f 26//31 24//31 76//31 77//31
f 44//31 42//31 85//31 86//31
f 62//31 60//31 94//31 95//31
f 18//31 16//31 72//31 73//31
f 36//31 34//31 81//31 82//31
f 54//31 52//31 90//31 91//31
f 10//31 8//31 68//31 69//31
f 28//31 26//31 77//31 78//31
f 46//31 44//31 86//31 87//31
f 64//31 62//31 95//31 96//31
f 20//31 18//31 73//31 74//31
f 38//31 36//31 82//31 83//31
f 56//31 54//31 91//31 92//31
f 12//31 10//31 69//31 70//31
f 30//31 28//31 78//31 79//31
f 48//31 46//31 87//31 88//31
f 4//31 2//31 66//31 65//31
f 2//31 64//31 96//31 66//31
f 65//17 66//17 98//17 97//17
f 93//12 92//12 124//12 125//12
f 80//32 79//32 111//32 112//32
f 67//18 65//18 97//18 99//18
f 94//13 93//13 125//13 126//13
f 81//33 80//33 112//33 113//33
f 68//19 67//19 99//19 100//19
f 95//14 94//14 126//14 127//14
f 82//1 81//1 113//1 114//1
f 69//20 68//20 100//20 101//20
f 96//15 95//15 127//15 128//15
f 83//2 82//2 114//2 115//2
f 70//21 69//21 101//21 102//21
f 66//16 96//16 128//16 98//16
f 84//3 83//3 115//3 116//3
f 71//22 70//22 102//22 103//22
f 85//4 84//4 116//4 117//4
f 72//23 71//23 103//23 104//23
f 86//5 85//5 117//5 118//5
f 73//24 72//24 104//24 105//24
f 87//6 86//6 118//6 119//6
f 74//25 73//25 105//25 106//25
f 88//7 87//7 119//7 120//7
f 75//26 74//26 106//26 107//26
f 89//8 88//8 120//8 121//8
f 76//27 75//27 107//27 108//27
f 90//9 89//9 121//9 122//9
f 77//28 76//28 108//28 109//28
f 91//10 90//10 122//10 123//10
f 78//29 77//29 109//29 110//29
f 92//11 91//11 123//11 124//11
g hole_1_Cylinder_holeIn
usemtl holeIn
f 97//31 98//31 128//31 127//31 126//31 125//31 124//31 123//31 122//31 121//31 120//31 119//31 118//31 117//31 116//31 115//31 114//31 113//31 112//31 111//31 110//31 109//31 108//31 107//31 106//31 105//31 104//31 103//31 102//31 101//31 100//31 99//31
